<svg xmlns="http://www.w3.org/2000/svg" style="background: #ffffff; " xmlns:xlink="http://www.w3.org/1999/xlink" version="1.1" width="651px" height="371px" viewBox="-0.5 -0.5 651 371"><defs/><rect fill="#ffffff" width="100%" height="100%" x="0" y="0" style="fill: rgb(255, 255, 255);"/><g><g data-cell-id="0"><g data-cell-id="1"><g data-cell-id="0o-pFZwJpg1ddxkr6_Pw-11"><g><rect x="0" y="0" width="650" height="220" rx="8.8" ry="8.8" fill="#d5e8d4" stroke="#82b366" pointer-events="all" style="fill: rgb(213, 232, 212); stroke: rgb(130, 179, 102);"/></g></g><g data-cell-id="0o-pFZwJpg1ddxkr6_Pw-12"><g/><g data-cell-id="0o-pFZwJpg1ddxkr6_Pw-2"><g><rect x="10" y="50" width="310" height="160" rx="9.6" ry="9.6" fill="#647687" stroke="#314354" pointer-events="all" style="fill: rgb(100, 118, 135); stroke: rgb(49, 67, 84);"/></g></g><g data-cell-id="0o-pFZwJpg1ddxkr6_Pw-3"><g><rect x="20" y="60" width="290" height="140" rx="8.4" ry="8.4" fill="#bac8d3" stroke="#23445d" pointer-events="all" style="fill: rgb(186, 200, 211); stroke: rgb(35, 68, 93);"/></g></g><g data-cell-id="0o-pFZwJpg1ddxkr6_Pw-4"><g><rect x="30" y="70" width="196" height="30" fill="none" stroke="none" pointer-events="all"/></g><g><g transform="translate(-0.5 -0.5)"><text xml:space="preserve" fill="rgb(0, 0, 0)" font-family="Courier New, DejaVu Sans Mono, monospace" font-size="14px" font-weight="bold" font-style="normal" text-anchor="start"><tspan x="32" y="81.5">Welcome to tty</tspan><tspan x="32" y="98.3">$ _</tspan></text></g></g></g></g><g data-cell-id="0o-pFZwJpg1ddxkr6_Pw-13"><g><rect x="0" y="10" width="120" height="30" fill="none" stroke="none" pointer-events="all"/></g><g><g transform="translate(-0.5 -0.5)"><text xml:space="preserve" fill="#000000" font-family="Helvetica, Helvetica, Arial, DejaVu Sans, sans-serif" font-size="12px" font-weight="bold" font-style="normal" text-anchor="middle"><tspan x="60" y="29.2">Xorg / Wayland</tspan></text></g></g></g><g data-cell-id="3pqRa64t6rmjuj8ooaqz-2"><g><path d="M 90 243.63 L 90 239.32 Q 90 235 100 235 L 152.5 235 Q 162.5 235 162.5 230.68 L 162.5 226.37" fill="none" stroke="#000000" stroke-miterlimit="10" pointer-events="stroke" style="stroke: rgb(0, 0, 0);"/><path d="M 90 248.88 L 86.5 241.88 L 90 243.63 L 93.5 241.88 Z" fill="#000000" stroke="#000000" stroke-miterlimit="10" pointer-events="all" style="fill: rgb(0, 0, 0); stroke: rgb(0, 0, 0);"/><path d="M 162.5 221.12 L 166 228.12 L 162.5 226.37 L 159 228.12 Z" fill="#000000" stroke="#000000" stroke-miterlimit="10" pointer-events="all" style="fill: rgb(0, 0, 0); stroke: rgb(0, 0, 0);"/></g></g><g data-cell-id="3pqRa64t6rmjuj8ooaqz-4"><g><path d="M 560 243.63 L 560 240.32 Q 560 237 550 237 L 497.5 237 Q 487.5 237 487.5 231.68 L 487.5 226.37" fill="none" stroke="#000000" stroke-miterlimit="10" pointer-events="stroke" style="stroke: rgb(0, 0, 0);"/><path d="M 560 248.88 L 556.5 241.88 L 560 243.63 L 563.5 241.88 Z" fill="#000000" stroke="#000000" stroke-miterlimit="10" pointer-events="all" style="fill: rgb(0, 0, 0); stroke: rgb(0, 0, 0);"/><path d="M 487.5 221.12 L 491 228.12 L 487.5 226.37 L 484 228.12 Z" fill="#000000" stroke="#000000" stroke-miterlimit="10" pointer-events="all" style="fill: rgb(0, 0, 0); stroke: rgb(0, 0, 0);"/></g></g><g data-cell-id="5R-mJvx248G6PVX8zOTL-2"><g/><g data-cell-id="0o-pFZwJpg1ddxkr6_Pw-7"><g><rect x="0" y="270" width="650" height="100" rx="15" ry="15" fill="#ffe6cc" stroke="#d79b00" pointer-events="all" style="fill: rgb(255, 230, 204); stroke: rgb(215, 155, 0);"/></g><g><g transform="translate(-0.5 -0.5)"><text xml:space="preserve" fill="#000000" font-family="Helvetica, Helvetica, Arial, DejaVu Sans, sans-serif" font-size="12px" font-weight="normal" font-style="normal" text-anchor="middle"><tspan x="325" y="324.2">Kernel                                                                       </tspan></text></g></g></g><g data-cell-id="0o-pFZwJpg1ddxkr6_Pw-9"><g><rect x="174" y="250" width="160" height="40" rx="6" ry="6" fill="#647687" stroke="#314354" pointer-events="all" style="fill: rgb(100, 118, 135); stroke: rgb(49, 67, 84);"/></g><g><g transform="translate(-0.5 -0.5)"><text xml:space="preserve" fill="#ffffff" font-family="Helvetica, Helvetica, Arial, DejaVu Sans, sans-serif" font-size="12px" font-weight="normal" font-style="normal" text-anchor="middle"><tspan x="254" y="267">TeleType (Terminal)</tspan><tspan x="254" y="281.4">(/dev/tty2)</tspan></text></g></g></g><g data-cell-id="YdMyYJDdj4SXKoEAG4BO-2"><g><rect x="10" y="250" width="160" height="40" rx="6" ry="6" fill="#647687" stroke="#314354" pointer-events="all" style="fill: rgb(100, 118, 135); stroke: rgb(49, 67, 84);"/></g><g><g transform="translate(-0.5 -0.5)"><text xml:space="preserve" fill="#ffffff" font-family="Helvetica, Helvetica, Arial, DejaVu Sans, sans-serif" font-size="12px" font-weight="normal" font-style="normal" text-anchor="middle"><tspan x="90" y="267">TeleType (Terminal) </tspan><tspan x="90" y="281.4">(/dev/tty1)</tspan></text></g></g></g><g data-cell-id="YdMyYJDdj4SXKoEAG4BO-1"><g><rect x="480" y="250" width="160" height="40" rx="6" ry="6" fill="#b1ddf0" stroke="#10739e" pointer-events="all" style="fill: rgb(177, 221, 240); stroke: rgb(16, 115, 158);"/></g><g><g transform="translate(-0.5 -0.5)"><text xml:space="preserve" fill="#000000" font-family="Helvetica, Helvetica, Arial, DejaVu Sans, sans-serif" font-size="12px" font-weight="normal" font-style="normal" text-anchor="middle"><tspan x="560" y="267">FrameBuffer</tspan><tspan x="560" y="281.4">(/dev/fb or /dev/video)</tspan></text></g></g></g><g data-cell-id="3pqRa64t6rmjuj8ooaqz-5"><g><rect x="420" y="310" width="120" height="40" rx="6" ry="6" fill="#eeeeee" stroke="#36393d" pointer-events="all" style="fill: rgb(238, 238, 238); stroke: rgb(54, 57, 61);"/></g><g><g transform="translate(-0.5 -0.5)"><text xml:space="preserve" fill="#000000" font-family="Helvetica, Helvetica, Arial, DejaVu Sans, sans-serif" font-size="12px" font-weight="normal" font-style="normal" text-anchor="middle"><tspan x="480" y="327">Pseudo TeleType </tspan><tspan x="480" y="341.4">(/dev/pts/n)</tspan></text></g></g></g><g data-cell-id="NXvraskonczKTN5BY_av-1"><g><rect x="250" y="300" width="170" height="40" rx="6" ry="6" fill="#647687" stroke="#314354" pointer-events="all" style="fill: rgb(100, 118, 135); stroke: rgb(49, 67, 84);"/></g><g><g transform="translate(-0.5 -0.5)"><text xml:space="preserve" fill="#ffffff" font-family="Helvetica, Helvetica, Arial, DejaVu Sans, sans-serif" font-size="12px" font-weight="normal" font-style="normal" text-anchor="middle"><tspan x="335" y="317">Pseudo Terminal Multiplexer</tspan><tspan x="335" y="331.4">(/dev/ptmx)</tspan></text></g></g></g></g><g data-cell-id="NXvraskonczKTN5BY_av-3"><g><path d="M 242.5 216.37 L 242.5 230 Q 242.5 240 252.5 240 L 367.5 240 Q 377.5 240 377.5 250 L 377.5 293.63" fill="none" stroke="#000000" stroke-miterlimit="10" pointer-events="stroke" style="stroke: rgb(0, 0, 0);"/><path d="M 242.5 211.12 L 246 218.12 L 242.5 216.37 L 239 218.12 Z" fill="#000000" stroke="#000000" stroke-miterlimit="10" pointer-events="all" style="fill: rgb(0, 0, 0); stroke: rgb(0, 0, 0);"/><path d="M 377.5 298.88 L 374 291.88 L 377.5 293.63 L 381 291.88 Z" fill="#000000" stroke="#000000" stroke-miterlimit="10" pointer-events="all" style="fill: rgb(0, 0, 0); stroke: rgb(0, 0, 0);"/></g></g><g data-cell-id="NXvraskonczKTN5BY_av-4"><g><path d="M 450 303.63 L 450 240 Q 450 230 440 230 L 284 230 Q 274 230 274.01 220 L 274.03 208.33" fill="none" stroke="#000000" stroke-miterlimit="10" pointer-events="stroke" style="stroke: rgb(0, 0, 0);"/><path d="M 450 308.88 L 446.5 301.88 L 450 303.63 L 453.5 301.88 Z" fill="#000000" stroke="#000000" stroke-miterlimit="10" pointer-events="all" style="fill: rgb(0, 0, 0); stroke: rgb(0, 0, 0);"/><path d="M 274.04 203.08 L 277.53 210.08 L 274.03 208.33 L 270.53 210.07 Z" fill="#000000" stroke="#000000" stroke-miterlimit="10" pointer-events="all" style="fill: rgb(0, 0, 0); stroke: rgb(0, 0, 0);"/></g></g></g></g></g></svg>